<?xml version="1.0" encoding="iso-8859-1"?>
<svg version="1.1" id="Layer_1" xmlns="http://www.w3.org/2000/svg" xmlns:xlink="http://www.w3.org/1999/xlink" x="0px" y="0px"
	 viewBox="0 0 505 505" style="enable-background:new 0 0 505 505;" xml:space="preserve">
<circle style="fill:#FFD05B;" cx="252.5" cy="252.5" r="252.5"/>
<path style="fill:#324A5E;" d="M357.9,120.2c-1.5-3.7-5.6-5.5-9.3-4.1l-244,95.6c-3.7,1.5-5.5,5.6-4.1,9.3c1.1,2.8,3.8,4.6,6.7,4.6
	c0.9,0,1.8-0.2,2.6-0.5l244-95.6C357.5,128.1,359.4,123.9,357.9,120.2z"/>
<path style="fill:#2C9984;" d="M383.5,280.1h31c0.9,0,1.7-0.8,1.7-1.7v-51.2c0-0.9-0.8-1.7-1.7-1.7h-31V280.1z"/>
<path style="fill:#FFFFFF;" d="M392.7,389.4H92.9c-2.3,0-4.1-1.9-4.1-4.1V207.5c0-2.3,1.9-4.1,4.1-4.1h299.8c2.3,0,4.1,1.9,4.1,4.1
	v177.8C396.9,387.6,395,389.4,392.7,389.4z"/>
<g>
	<rect x="113.2" y="232.6" style="fill:#ACB3BA;" width="120" height="13.8"/>
	<rect x="113.2" y="261" style="fill:#ACB3BA;" width="120" height="13.8"/>
	<rect x="113.2" y="289.5" style="fill:#ACB3BA;" width="120" height="13.8"/>
	<rect x="113.2" y="317.9" style="fill:#ACB3BA;" width="120" height="13.8"/>
	<rect x="113.2" y="346.4" style="fill:#ACB3BA;" width="120" height="13.8"/>
</g>
<circle style="fill:#324A5E;" cx="314.5" cy="296.4" r="54.3"/>
<circle style="fill:#2B3B4E;" cx="314.5" cy="296.4" r="36.7"/>
</svg>
