<?xml version="1.0" encoding="iso-8859-1"?>
<!-- Generator: Adobe Illustrator 19.0.0, SVG Export Plug-In . SVG Version: 6.00 Build 0)  -->
<svg version="1.1" id="Layer_1" xmlns="http://www.w3.org/2000/svg" xmlns:xlink="http://www.w3.org/1999/xlink" x="0px" y="0px"
	 viewBox="0 0 512 512" style="enable-background:new 0 0 512 512;" xml:space="preserve">
<g transform="translate(1 1)">
	<g>
		<path style="fill:#FFE100;" d="M127,502.467H75.8c-5.12,0-8.533-3.413-8.533-8.533v-25.6h68.267v25.6
			C135.533,499.053,132.12,502.467,127,502.467"/>
		<path style="fill:#FFE100;" d="M434.2,502.467H383c-5.12,0-8.533-3.413-8.533-8.533v-25.6h68.267v25.6
			C442.733,499.053,439.32,502.467,434.2,502.467"/>
	</g>
	<path style="fill:#FFA800;" d="M456.387,468.333H232.813c-25.6,0-46.08-20.48-46.08-46.08V241.347c0-25.6,20.48-46.08,46.08-46.08
		h223.573c25.6,0,46.08,20.48,46.08,46.08v180.907C502.467,447.853,481.987,468.333,456.387,468.333"/>
	<path style="fill:#FFFFFF;" d="M277.187,468.333H53.613c-25.6,0-46.08-20.48-46.08-46.08V241.347c0-25.6,20.48-46.08,46.08-46.08
		h223.573c25.6,0,46.08,20.48,46.08,46.08v180.907C323.267,447.853,302.787,468.333,277.187,468.333"/>
	<path style="fill:#FFE100;" d="M430.787,468.333H79.213c-25.6,0-46.08-20.48-46.08-46.08V241.347c0-25.6,20.48-46.08,46.08-46.08
		h351.573c25.6,0,46.08,20.48,46.08,46.08v180.907C476.867,447.853,456.387,468.333,430.787,468.333"/>
	<path style="fill:#3DB9F9;" d="M434.2,306.2H75.8c-9.387,0-17.067-7.68-17.067-17.067V255c0-9.387,7.68-17.067,17.067-17.067h358.4
		c9.387,0,17.067,7.68,17.067,17.067v34.133C451.267,298.52,443.587,306.2,434.2,306.2"/>
	<path style="fill:#63D3FD;" d="M408.6,306.2H75.8c-9.387,0-17.067-7.68-17.067-17.067V255c0-9.387,7.68-17.067,17.067-17.067h332.8
		c9.387,0,17.067,7.68,17.067,17.067v34.133C425.667,298.52,417.987,306.2,408.6,306.2"/>
	<path style="fill:#00AD55;" d="M459.8,383c0,23.893-18.773,42.667-42.667,42.667c-23.893,0-42.667-18.773-42.667-42.667
		s18.773-42.667,42.667-42.667C441.027,340.333,459.8,359.107,459.8,383"/>
	<path style="fill:#00DA6C;" d="M434.2,383c0,23.893-13.653,42.667-29.867,42.667S374.467,406.893,374.467,383
		s13.653-42.667,29.867-42.667S434.2,359.107,434.2,383"/>
	<path style="fill:#00AD55;" d="M135.533,383c0,23.893-18.773,42.667-42.667,42.667S50.2,406.893,50.2,383
		s18.773-42.667,42.667-42.667S135.533,359.107,135.533,383"/>
	<path style="fill:#00DA6C;" d="M109.933,383c0,23.893-13.653,42.667-29.867,42.667S50.2,406.893,50.2,383
		s13.653-42.667,29.867-42.667S109.933,359.107,109.933,383"/>
	<path d="M456.387,476.867H53.613C23.747,476.867-1,452.12-1,422.253V241.347c0-29.867,24.747-54.613,54.613-54.613h402.773
		c29.867,0,54.613,24.747,54.613,54.613v180.907C511,452.12,486.253,476.867,456.387,476.867z M53.613,203.8
		c-20.48,0-37.547,17.067-37.547,37.547v180.907c0,20.48,17.067,37.547,37.547,37.547h402.773c20.48,0,37.547-17.067,37.547-37.547
		V241.347c0-20.48-17.067-37.547-37.547-37.547H53.613z"/>
	<path d="M127,511H75.8c-9.387,0-17.067-7.68-17.067-17.067v-25.6c0-5.12,3.413-8.533,8.533-8.533h68.267
		c5.12,0,8.533,3.413,8.533,8.533v25.6C144.067,503.32,136.387,511,127,511z M127,493.933v8.533V493.933L127,493.933z M75.8,476.867
		v17.067H127v-17.067H75.8z"/>
	<path d="M434.2,511H383c-9.387,0-17.067-7.68-17.067-17.067v-25.6c0-5.12,3.413-8.533,8.533-8.533h68.267
		c5.12,0,8.533,3.413,8.533,8.533v25.6C451.267,503.32,443.587,511,434.2,511z M383,476.867v17.067h51.2v-17.067H383z"/>
	<path d="M84.333,203.8c-2.56,0-4.267-0.853-5.973-2.56c-3.413-3.413-3.413-8.533,0-11.947L266.093,1.56
		c3.413-3.413,8.533-3.413,11.947,0s3.413,8.533,0,11.947L90.307,201.24C88.6,202.947,86.893,203.8,84.333,203.8z"/>
	<path d="M425.667,203.8h-34.133c-5.12,0-8.533-3.413-8.533-8.533v-25.6c0-14.507,11.093-25.6,25.6-25.6
		c14.507,0,25.6,11.093,25.6,25.6v25.6C434.2,200.387,430.787,203.8,425.667,203.8z M400.067,186.733h17.067v-17.067
		c0-5.12-3.413-8.533-8.533-8.533c-5.12,0-8.533,3.413-8.533,8.533V186.733z"/>
	<path d="M92.867,434.2c-28.16,0-51.2-23.04-51.2-51.2s23.04-51.2,51.2-51.2s51.2,23.04,51.2,51.2S121.027,434.2,92.867,434.2z
		 M92.867,348.867c-18.773,0-34.133,15.36-34.133,34.133s15.36,34.133,34.133,34.133S127,401.773,127,383
		S111.64,348.867,92.867,348.867z"/>
	<path d="M101.4,383c0,5.12-3.413,8.533-8.533,8.533s-8.533-3.413-8.533-8.533s3.413-8.533,8.533-8.533S101.4,377.88,101.4,383"/>
	<path d="M417.133,434.2c-28.16,0-51.2-23.04-51.2-51.2s23.04-51.2,51.2-51.2c28.16,0,51.2,23.04,51.2,51.2
		S445.293,434.2,417.133,434.2z M417.133,348.867C398.36,348.867,383,364.227,383,383s15.36,34.133,34.133,34.133
		s34.133-15.36,34.133-34.133S435.907,348.867,417.133,348.867z"/>
	<path d="M425.667,383c0,5.12-3.413,8.533-8.533,8.533S408.6,388.12,408.6,383s3.413-8.533,8.533-8.533S425.667,377.88,425.667,383"
		/>
	<path d="M434.2,314.733H75.8c-14.507,0-25.6-11.947-25.6-25.6V255c0-14.507,11.947-25.6,25.6-25.6h358.4
		c14.507,0,25.6,11.947,25.6,25.6v34.133C459.8,302.787,447.853,314.733,434.2,314.733z M75.8,246.467
		c-5.12,0-8.533,4.267-8.533,8.533v34.133c0,5.12,4.267,8.533,8.533,8.533h358.4c5.12,0,8.533-4.267,8.533-8.533V255
		c0-5.12-4.267-8.533-8.533-8.533H75.8z"/>
	<path d="M109.933,314.733c-5.12,0-8.533-3.413-8.533-8.533v-17.067c0-5.12,3.413-8.533,8.533-8.533s8.533,3.413,8.533,8.533V306.2
		C118.467,311.32,115.053,314.733,109.933,314.733z"/>
	<path d="M161.133,314.733c-5.12,0-8.533-3.413-8.533-8.533v-34.133c0-5.12,3.413-8.533,8.533-8.533c5.12,0,8.533,3.413,8.533,8.533
		V306.2C169.667,311.32,166.253,314.733,161.133,314.733z"/>
	<path d="M212.333,314.733c-5.12,0-8.533-3.413-8.533-8.533v-17.067c0-5.12,3.413-8.533,8.533-8.533c5.12,0,8.533,3.413,8.533,8.533
		V306.2C220.867,311.32,217.453,314.733,212.333,314.733z"/>
	<path d="M263.533,314.733c-5.12,0-8.533-3.413-8.533-8.533v-34.133c0-5.12,3.413-8.533,8.533-8.533c5.12,0,8.533,3.413,8.533,8.533
		V306.2C272.067,311.32,268.653,314.733,263.533,314.733z"/>
	<path d="M314.733,314.733c-5.12,0-8.533-3.413-8.533-8.533v-17.067c0-5.12,3.413-8.533,8.533-8.533c5.12,0,8.533,3.413,8.533,8.533
		V306.2C323.267,311.32,319.853,314.733,314.733,314.733z"/>
	<path d="M365.933,314.733c-5.12,0-8.533-3.413-8.533-8.533v-34.133c0-5.12,3.413-8.533,8.533-8.533s8.533,3.413,8.533,8.533V306.2
		C374.467,311.32,371.053,314.733,365.933,314.733z"/>
	<path d="M323.267,365.933H186.733c-5.12,0-8.533-3.413-8.533-8.533s3.413-8.533,8.533-8.533h136.533
		c5.12,0,8.533,3.413,8.533,8.533S328.387,365.933,323.267,365.933z"/>
	<path d="M212.333,383c-5.12,0-8.533-3.413-8.533-8.533v-34.133c0-5.12,3.413-8.533,8.533-8.533c5.12,0,8.533,3.413,8.533,8.533
		v34.133C220.867,379.587,217.453,383,212.333,383z"/>
	<path d="M323.267,425.667H186.733c-5.12,0-8.533-3.413-8.533-8.533s3.413-8.533,8.533-8.533h136.533
		c5.12,0,8.533,3.413,8.533,8.533S328.387,425.667,323.267,425.667z"/>
	<path d="M297.667,442.733c-5.12,0-8.533-3.413-8.533-8.533v-34.133c0-5.12,3.413-8.533,8.533-8.533s8.533,3.413,8.533,8.533V434.2
		C306.2,439.32,302.787,442.733,297.667,442.733z"/>
</g>
<g>
</g>
<g>
</g>
<g>
</g>
<g>
</g>
<g>
</g>
<g>
</g>
<g>
</g>
<g>
</g>
<g>
</g>
<g>
</g>
<g>
</g>
<g>
</g>
<g>
</g>
<g>
</g>
<g>
</g>
</svg>
